<svg width="300" height="150" viewBox="0 0 300 150" fill="none" xmlns="http://www.w3.org/2000/svg">
<path d="M150.012 105.5L149.994 105.5L149.976 105.501C128.067 106.537 117.064 117.661 111.567 128.545C108.825 133.973 107.456 139.331 106.772 143.329C106.43 145.33 106.259 146.992 106.173 148.157C106.13 148.732 106.109 149.187 106.098 149.5H62.5V76.6667C62.5 68.8426 68.8426 62.5 76.6667 62.5H223.333C231.157 62.5 237.5 68.8426 237.5 76.6667V149.5H194.467C193.352 133.946 187.672 123.091 179.562 116.048C171.378 108.943 160.77 105.764 150.012 105.5Z" fill="black" stroke="black"/>
<path d="M0 25C0 11.1929 11.1929 0 25 0H275C288.807 0 300 11.1929 300 25V150H225C221.5 96.5 186.381 75.8911 150 75C76 78.5 76 150 76 150H0V25Z" fill="#CA2424"/>
</svg>